<?xml version="1.0" encoding="UTF-8"?>
<svg width="2500" height="2500" preserveAspectRatio="xMinYMin meet" viewBox="0 0 256 256" xmlns="http://www.w3.org/2000/svg">
<path d="m251.17 116.59-111.77-111.77c-6.433-6.437-16.873-6.437-23.314 0l-23.21 23.21 29.443 29.443c6.842-2.312 14.688-0.761 20.142 4.693 5.48 5.489 7.02 13.402 4.652 20.266l28.375 28.376c6.865-2.365 14.786-0.835 20.269 4.657 7.663 7.66 7.663 20.075 0 27.74-7.665 7.666-20.08 7.666-27.749 0-5.764-5.77-7.188-14.235-4.27-21.336l-26.462-26.462-3e-3 69.637a19.82 19.82 0 0 1 5.188 3.71c7.663 7.66 7.663 20.076 0 27.747-7.665 7.662-20.086 7.662-27.74 0-7.663-7.671-7.663-20.086 0-27.746a19.654 19.654 0 0 1 6.421-4.281v-70.286a19.378 19.378 0 0 1-6.421-4.281c-5.806-5.798-7.202-14.317-4.227-21.446l-29.024-29.027-76.64 76.635c-6.44 6.443-6.44 16.884 0 23.322l111.77 111.77c6.435 6.438 16.873 6.438 23.316 0l111.25-111.25c6.438-6.44 6.438-16.887 0-23.324" fill="#DE4C36"/>
</svg>
